{
	"asset":{
		"generator":"Khronos glTF Blender I/O v4.1.63",
		"version":"2.0"
	},
	"scene":0,
	"scenes":[
		{
			"name":"Scene",
			"nodes":[
				0
			]
		}
	],
	"nodes":[
		{
			"mesh":0,
			"name":"Object_24.001"
		}
	],
	"materials":[
		{
			"name":"S_Rock_01.003",
			"normalTexture":{
				"index":0
			},
			"occlusionTexture":{
				"index":1
			},
			"pbrMetallicRoughness":{
				"baseColorTexture":{
					"index":2
				},
				"metallicRoughnessTexture":{
					"index":1
				}
			}
		}
	],
	"meshes":[
		{
			"name":"Object_10.001",
			"primitives":[
				{
					"attributes":{
						"POSITION":0,
						"NORMAL":1,
						"TEXCOORD_0":2,
						"TEXCOORD_1":3,
						"TEXCOORD_2":4,
						"TEXCOORD_3":5,
						"TEXCOORD_4":6
					},
					"indices":7,
					"material":0
				}
			]
		}
	],
	"textures":[
		{
			"sampler":0,
			"source":0
		},
		{
			"sampler":0,
			"source":1
		},
		{
			"sampler":0,
			"source":2
		}
	],
	"images":[
		{
			"mimeType":"image/png",
			"name":"S_Rock_01.002_normal",
			"uri":"texture/S_Rock_01_002_normal.png"
		},
		{
			"mimeType":"image/png",
			"name":"S_Rock_01.002_metallicRoughness",
			"uri":"texture/S_Rock_01_002_metallicRoughness.png"
		},
		{
			"mimeType":"image/png",
			"name":"S_Rock_01.002_baseColor",
			"uri":"texture/S_Rock_01_002_baseColor.png"
		}
	],
	"accessors":[
		{
			"bufferView":0,
			"componentType":5126,
			"count":102,
			"max":[
				0.5748960971832275,
				0.6355558633804321,
				0.6074535846710205
			],
			"min":[
				-0.5443511009216309,
				-0.6348755955696106,
				-0.5866820216178894
			],
			"type":"VEC3"
		},
		{
			"bufferView":1,
			"componentType":5126,
			"count":102,
			"type":"VEC3"
		},
		{
			"bufferView":2,
			"componentType":5126,
			"count":102,
			"type":"VEC2"
		},
		{
			"bufferView":3,
			"componentType":5126,
			"count":102,
			"type":"VEC2"
		},
		{
			"bufferView":4,
			"componentType":5126,
			"count":102,
			"type":"VEC2"
		},
		{
			"bufferView":5,
			"componentType":5126,
			"count":102,
			"type":"VEC2"
		},
		{
			"bufferView":6,
			"componentType":5126,
			"count":102,
			"type":"VEC2"
		},
		{
			"bufferView":7,
			"componentType":5123,
			"count":186,
			"type":"SCALAR"
		}
	],
	"bufferViews":[
		{
			"buffer":0,
			"byteLength":1224,
			"byteOffset":0,
			"target":34962
		},
		{
			"buffer":0,
			"byteLength":1224,
			"byteOffset":1224,
			"target":34962
		},
		{
			"buffer":0,
			"byteLength":816,
			"byteOffset":2448,
			"target":34962
		},
		{
			"buffer":0,
			"byteLength":816,
			"byteOffset":3264,
			"target":34962
		},
		{
			"buffer":0,
			"byteLength":816,
			"byteOffset":4080,
			"target":34962
		},
		{
			"buffer":0,
			"byteLength":816,
			"byteOffset":4896,
			"target":34962
		},
		{
			"buffer":0,
			"byteLength":816,
			"byteOffset":5712,
			"target":34962
		},
		{
			"buffer":0,
			"byteLength":372,
			"byteOffset":6528,
			"target":34963
		}
	],
	"samplers":[
		{
			"magFilter":9729,
			"minFilter":9987
		}
	],
	"buffers":[
		{
			"byteLength":6900,
			"uri":"rock.bin"
		}
	]
}
