{
	"asset":{
		"generator":"Khronos glTF Blender I/O v4.1.63",
		"version":"2.0"
	},
	"scene":0,
	"scenes":[
		{
			"name":"Scene",
			"nodes":[
				0
			]
		}
	],
	"nodes":[
		{
			"mesh":0,
			"name":"Object_28"
		}
	],
	"materials":[
		{
			"name":"S_Rock_03",
			"normalTexture":{
				"index":0
			},
			"occlusionTexture":{
				"index":1
			},
			"pbrMetallicRoughness":{
				"baseColorTexture":{
					"index":2
				},
				"metallicRoughnessTexture":{
					"index":1
				}
			}
		}
	],
	"meshes":[
		{
			"name":"Object_12",
			"primitives":[
				{
					"attributes":{
						"POSITION":0,
						"NORMAL":1,
						"TEXCOORD_0":2,
						"TEXCOORD_1":3,
						"TEXCOORD_2":4,
						"TEXCOORD_3":5,
						"TEXCOORD_4":6
					},
					"indices":7,
					"material":0
				}
			]
		}
	],
	"textures":[
		{
			"sampler":0,
			"source":0
		},
		{
			"sampler":0,
			"source":1
		},
		{
			"sampler":0,
			"source":2
		}
	],
	"images":[
		{
			"mimeType":"image/png",
			"name":"S_Rock_03_normal",
			"uri":"texture/S_Rock_03_normal.png"
		},
		{
			"mimeType":"image/png",
			"name":"S_Rock_03_metallicRoughness",
			"uri":"texture/S_Rock_03_metallicRoughness.png"
		},
		{
			"mimeType":"image/png",
			"name":"S_Rock_03_baseColor",
			"uri":"texture/S_Rock_03_baseColor.png"
		}
	],
	"accessors":[
		{
			"bufferView":0,
			"componentType":5126,
			"count":134,
			"max":[
				0.6584293842315674,
				0.5750377774238586,
				0.6012760996818542
			],
			"min":[
				-0.5463451743125916,
				-0.6859347224235535,
				-0.7001323699951172
			],
			"type":"VEC3"
		},
		{
			"bufferView":1,
			"componentType":5126,
			"count":134,
			"type":"VEC3"
		},
		{
			"bufferView":2,
			"componentType":5126,
			"count":134,
			"type":"VEC2"
		},
		{
			"bufferView":3,
			"componentType":5126,
			"count":134,
			"type":"VEC2"
		},
		{
			"bufferView":4,
			"componentType":5126,
			"count":134,
			"type":"VEC2"
		},
		{
			"bufferView":5,
			"componentType":5126,
			"count":134,
			"type":"VEC2"
		},
		{
			"bufferView":6,
			"componentType":5126,
			"count":134,
			"type":"VEC2"
		},
		{
			"bufferView":7,
			"componentType":5123,
			"count":234,
			"type":"SCALAR"
		}
	],
	"bufferViews":[
		{
			"buffer":0,
			"byteLength":1608,
			"byteOffset":0,
			"target":34962
		},
		{
			"buffer":0,
			"byteLength":1608,
			"byteOffset":1608,
			"target":34962
		},
		{
			"buffer":0,
			"byteLength":1072,
			"byteOffset":3216,
			"target":34962
		},
		{
			"buffer":0,
			"byteLength":1072,
			"byteOffset":4288,
			"target":34962
		},
		{
			"buffer":0,
			"byteLength":1072,
			"byteOffset":5360,
			"target":34962
		},
		{
			"buffer":0,
			"byteLength":1072,
			"byteOffset":6432,
			"target":34962
		},
		{
			"buffer":0,
			"byteLength":1072,
			"byteOffset":7504,
			"target":34962
		},
		{
			"buffer":0,
			"byteLength":468,
			"byteOffset":8576,
			"target":34963
		}
	],
	"samplers":[
		{
			"magFilter":9729,
			"minFilter":9987
		}
	],
	"buffers":[
		{
			"byteLength":9044,
			"uri":"rock.bin"
		}
	]
}
