{
	"asset":{
		"generator":"Khronos glTF Blender I/O v4.1.63",
		"version":"2.0"
	},
	"scene":0,
	"scenes":[
		{
			"name":"Scene",
			"nodes":[
				0
			]
		}
	],
	"nodes":[
		{
			"mesh":0,
			"name":"Object_26"
		}
	],
	"materials":[
		{
			"name":"S_Rock_02.001",
			"normalTexture":{
				"index":0
			},
			"occlusionTexture":{
				"index":1
			},
			"pbrMetallicRoughness":{
				"baseColorTexture":{
					"index":2
				},
				"metallicRoughnessTexture":{
					"index":1
				}
			}
		}
	],
	"meshes":[
		{
			"name":"Object_11",
			"primitives":[
				{
					"attributes":{
						"POSITION":0,
						"NORMAL":1,
						"TEXCOORD_0":2,
						"TEXCOORD_1":3,
						"TEXCOORD_2":4,
						"TEXCOORD_3":5,
						"TEXCOORD_4":6
					},
					"indices":7,
					"material":0
				}
			]
		}
	],
	"textures":[
		{
			"sampler":0,
			"source":0
		},
		{
			"sampler":0,
			"source":1
		},
		{
			"sampler":0,
			"source":2
		}
	],
	"images":[
		{
			"mimeType":"image/png",
			"name":"S_Rock_02.001_normal",
			"uri":"texture/S_Rock_02_001_normal.png"
		},
		{
			"mimeType":"image/png",
			"name":"S_Rock_02.001_metallicRoughness",
			"uri":"texture/S_Rock_02_001_metallicRoughness.png"
		},
		{
			"mimeType":"image/png",
			"name":"S_Rock_02.001_baseColor",
			"uri":"texture/S_Rock_02_001_baseColor.png"
		}
	],
	"accessors":[
		{
			"bufferView":0,
			"componentType":5126,
			"count":122,
			"max":[
				0.5623382925987244,
				0.5787832736968994,
				0.5439878702163696
			],
			"min":[
				-0.5495717525482178,
				-0.6275449395179749,
				-0.6209819316864014
			],
			"type":"VEC3"
		},
		{
			"bufferView":1,
			"componentType":5126,
			"count":122,
			"type":"VEC3"
		},
		{
			"bufferView":2,
			"componentType":5126,
			"count":122,
			"type":"VEC2"
		},
		{
			"bufferView":3,
			"componentType":5126,
			"count":122,
			"type":"VEC2"
		},
		{
			"bufferView":4,
			"componentType":5126,
			"count":122,
			"type":"VEC2"
		},
		{
			"bufferView":5,
			"componentType":5126,
			"count":122,
			"type":"VEC2"
		},
		{
			"bufferView":6,
			"componentType":5126,
			"count":122,
			"type":"VEC2"
		},
		{
			"bufferView":7,
			"componentType":5123,
			"count":228,
			"type":"SCALAR"
		}
	],
	"bufferViews":[
		{
			"buffer":0,
			"byteLength":1464,
			"byteOffset":0,
			"target":34962
		},
		{
			"buffer":0,
			"byteLength":1464,
			"byteOffset":1464,
			"target":34962
		},
		{
			"buffer":0,
			"byteLength":976,
			"byteOffset":2928,
			"target":34962
		},
		{
			"buffer":0,
			"byteLength":976,
			"byteOffset":3904,
			"target":34962
		},
		{
			"buffer":0,
			"byteLength":976,
			"byteOffset":4880,
			"target":34962
		},
		{
			"buffer":0,
			"byteLength":976,
			"byteOffset":5856,
			"target":34962
		},
		{
			"buffer":0,
			"byteLength":976,
			"byteOffset":6832,
			"target":34962
		},
		{
			"buffer":0,
			"byteLength":456,
			"byteOffset":7808,
			"target":34963
		}
	],
	"samplers":[
		{
			"magFilter":9729,
			"minFilter":9987
		}
	],
	"buffers":[
		{
			"byteLength":8264,
			"uri":"rock.bin"
		}
	]
}
