{
	"asset":{
		"generator":"Khronos glTF Blender I/O v4.1.63",
		"version":"2.0"
	},
	"scene":0,
	"scenes":[
		{
			"name":"Scene",
			"nodes":[
				0
			]
		}
	],
	"nodes":[
		{
			"mesh":0,
			"name":"Object_32"
		}
	],
	"materials":[
		{
			"name":"S_Rock_05.001",
			"normalTexture":{
				"index":0
			},
			"occlusionTexture":{
				"index":1
			},
			"pbrMetallicRoughness":{
				"baseColorTexture":{
					"index":2
				},
				"metallicRoughnessTexture":{
					"index":1
				}
			}
		}
	],
	"meshes":[
		{
			"name":"Object_14",
			"primitives":[
				{
					"attributes":{
						"POSITION":0,
						"NORMAL":1,
						"TEXCOORD_0":2,
						"TEXCOORD_1":3,
						"TEXCOORD_2":4,
						"TEXCOORD_3":5,
						"TEXCOORD_4":6
					},
					"indices":7,
					"material":0
				}
			]
		}
	],
	"textures":[
		{
			"sampler":0,
			"source":0
		},
		{
			"sampler":0,
			"source":1
		},
		{
			"sampler":0,
			"source":2
		}
	],
	"images":[
		{
			"mimeType":"image/png",
			"name":"S_Rock_05.001_normal",
			"uri":"texture/S_Rock_05_001_normal.png"
		},
		{
			"mimeType":"image/png",
			"name":"S_Rock_05.001_metallicRoughness",
			"uri":"texture/S_Rock_05_001_metallicRoughness.png"
		},
		{
			"mimeType":"image/png",
			"name":"S_Rock_05.001_baseColor",
			"uri":"texture/S_Rock_05_001_baseColor.png"
		}
	],
	"accessors":[
		{
			"bufferView":0,
			"componentType":5126,
			"count":113,
			"max":[
				0.5430607199668884,
				0.5628632307052612,
				0.5500289797782898
			],
			"min":[
				-0.5985780358314514,
				-0.6136085391044617,
				-0.5591868162155151
			],
			"type":"VEC3"
		},
		{
			"bufferView":1,
			"componentType":5126,
			"count":113,
			"type":"VEC3"
		},
		{
			"bufferView":2,
			"componentType":5126,
			"count":113,
			"type":"VEC2"
		},
		{
			"bufferView":3,
			"componentType":5126,
			"count":113,
			"type":"VEC2"
		},
		{
			"bufferView":4,
			"componentType":5126,
			"count":113,
			"type":"VEC2"
		},
		{
			"bufferView":5,
			"componentType":5126,
			"count":113,
			"type":"VEC2"
		},
		{
			"bufferView":6,
			"componentType":5126,
			"count":113,
			"type":"VEC2"
		},
		{
			"bufferView":7,
			"componentType":5123,
			"count":198,
			"type":"SCALAR"
		}
	],
	"bufferViews":[
		{
			"buffer":0,
			"byteLength":1356,
			"byteOffset":0,
			"target":34962
		},
		{
			"buffer":0,
			"byteLength":1356,
			"byteOffset":1356,
			"target":34962
		},
		{
			"buffer":0,
			"byteLength":904,
			"byteOffset":2712,
			"target":34962
		},
		{
			"buffer":0,
			"byteLength":904,
			"byteOffset":3616,
			"target":34962
		},
		{
			"buffer":0,
			"byteLength":904,
			"byteOffset":4520,
			"target":34962
		},
		{
			"buffer":0,
			"byteLength":904,
			"byteOffset":5424,
			"target":34962
		},
		{
			"buffer":0,
			"byteLength":904,
			"byteOffset":6328,
			"target":34962
		},
		{
			"buffer":0,
			"byteLength":396,
			"byteOffset":7232,
			"target":34963
		}
	],
	"samplers":[
		{
			"magFilter":9729,
			"minFilter":9987
		}
	],
	"buffers":[
		{
			"byteLength":7628,
			"uri":"rock.bin"
		}
	]
}
