{
	"asset":{
		"generator":"Khronos glTF Blender I/O v4.1.63",
		"version":"2.0"
	},
	"scene":0,
	"scenes":[
		{
			"name":"Scene",
			"nodes":[
				0
			]
		}
	],
	"nodes":[
		{
			"mesh":0,
			"name":"Object_30"
		}
	],
	"materials":[
		{
			"name":"S_Rock_04.001",
			"normalTexture":{
				"index":0
			},
			"occlusionTexture":{
				"index":1
			},
			"pbrMetallicRoughness":{
				"baseColorTexture":{
					"index":2
				},
				"metallicRoughnessTexture":{
					"index":1
				}
			}
		}
	],
	"meshes":[
		{
			"name":"Object_13",
			"primitives":[
				{
					"attributes":{
						"POSITION":0,
						"NORMAL":1,
						"TEXCOORD_0":2,
						"TEXCOORD_1":3,
						"TEXCOORD_2":4,
						"TEXCOORD_3":5,
						"TEXCOORD_4":6
					},
					"indices":7,
					"material":0
				}
			]
		}
	],
	"textures":[
		{
			"sampler":0,
			"source":0
		},
		{
			"sampler":0,
			"source":1
		},
		{
			"sampler":0,
			"source":2
		}
	],
	"images":[
		{
			"mimeType":"image/png",
			"name":"S_Rock_04.001_normal",
			"uri":"texture/S_Rock_04_001_normal.png"
		},
		{
			"mimeType":"image/png",
			"name":"S_Rock_04.001_metallicRoughness",
			"uri":"texture/S_Rock_04_001_metallicRoughness.png"
		},
		{
			"mimeType":"image/png",
			"name":"S_Rock_04.001_baseColor",
			"uri":"texture/S_Rock_04_001_baseColor.png"
		}
	],
	"accessors":[
		{
			"bufferView":0,
			"componentType":5126,
			"count":114,
			"max":[
				0.6060901284217834,
				0.5159268379211426,
				0.5634045004844666
			],
			"min":[
				-0.5476336479187012,
				-0.6878872513771057,
				-0.4694877862930298
			],
			"type":"VEC3"
		},
		{
			"bufferView":1,
			"componentType":5126,
			"count":114,
			"type":"VEC3"
		},
		{
			"bufferView":2,
			"componentType":5126,
			"count":114,
			"type":"VEC2"
		},
		{
			"bufferView":3,
			"componentType":5126,
			"count":114,
			"type":"VEC2"
		},
		{
			"bufferView":4,
			"componentType":5126,
			"count":114,
			"type":"VEC2"
		},
		{
			"bufferView":5,
			"componentType":5126,
			"count":114,
			"type":"VEC2"
		},
		{
			"bufferView":6,
			"componentType":5126,
			"count":114,
			"type":"VEC2"
		},
		{
			"bufferView":7,
			"componentType":5123,
			"count":204,
			"type":"SCALAR"
		}
	],
	"bufferViews":[
		{
			"buffer":0,
			"byteLength":1368,
			"byteOffset":0,
			"target":34962
		},
		{
			"buffer":0,
			"byteLength":1368,
			"byteOffset":1368,
			"target":34962
		},
		{
			"buffer":0,
			"byteLength":912,
			"byteOffset":2736,
			"target":34962
		},
		{
			"buffer":0,
			"byteLength":912,
			"byteOffset":3648,
			"target":34962
		},
		{
			"buffer":0,
			"byteLength":912,
			"byteOffset":4560,
			"target":34962
		},
		{
			"buffer":0,
			"byteLength":912,
			"byteOffset":5472,
			"target":34962
		},
		{
			"buffer":0,
			"byteLength":912,
			"byteOffset":6384,
			"target":34962
		},
		{
			"buffer":0,
			"byteLength":408,
			"byteOffset":7296,
			"target":34963
		}
	],
	"samplers":[
		{
			"magFilter":9729,
			"minFilter":9987
		}
	],
	"buffers":[
		{
			"byteLength":7704,
			"uri":"rock.bin"
		}
	]
}
